<svg viewBox="0 0 64 59" fill="currentColor" xmlns="http://www.w3.org/2000/svg">
<path d="M29.8304 1.31353C30.2336 0.509263 31.0784 0 32 0C32.9248 0 33.7664 0.509263 34.1696 1.31353C37.2864 7.51784 42.6496 18.2062 42.6496 18.2062C42.6496 18.2062 54.8448 19.8333 61.92 20.7804C63.2096 20.9512 64 22.0101 64 23.1001C64 23.6901 63.7696 24.2894 63.2608 24.7645C58.1088 29.5404 49.2384 37.7786 49.2384 37.7786C49.2384 37.7786 51.4048 49.4762 52.6592 56.2612C52.9248 57.6958 51.7792 59 50.2848 59C49.8944 59 49.504 58.9099 49.1488 58.7236C42.8512 55.4693 32 49.8705 32 49.8705C32 49.8705 21.1488 55.4693 14.8512 58.7236C14.496 58.9099 14.1024 59 13.712 59C12.224 59 11.072 57.6927 11.3408 56.2612C12.5984 49.4762 14.7648 37.7786 14.7648 37.7786C14.7648 37.7786 5.8912 29.5404 0.7424 24.7645C0.2304 24.2894 0 23.6901 0 23.1032C0 22.0101 0.7968 20.9481 2.0832 20.7804C9.1584 19.8333 21.3504 18.2062 21.3504 18.2062C21.3504 18.2062 26.7168 7.51784 29.8304 1.31353Z"/>
</svg>
