<?xml version="1.0" encoding="UTF-8"?>
<svg id="Layer_1" xmlns="http://www.w3.org/2000/svg" viewBox="0 0 512 512">
  <defs>
    <style>
      .cls-1 {
        fill: #fff;
      }
    </style>
  </defs>
  <path class="cls-1" d="M256,0C114.73,0,0,114.73,0,256s114.73,256,256,256,256-114.73,256-256S397.27,0,256,0ZM249.3,19.88c-133.9,7.38-131.67,236.12,6.7,236.12s140.56,226.19,8.97,236.04c-2.98.11-5.97.19-8.97.19-130.58,0-236.22-105.64-236.22-236.22S121.83,23.41,249.3,19.88h0ZM256,87.9c24.76,0,45.05,20.29,45.05,45.05s-20.29,45.05-45.05,45.05-45.05-20.29-45.05-45.05,20.29-45.05,45.05-45.05ZM256,334.01c-24.76,0-45.05,20.29-45.05,45.05s20.29,45.05,45.05,45.05,45.05-20.29,45.05-45.05-20.29-45.05-45.05-45.05Z"/>
</svg>