<?xml version="1.0" encoding="UTF-8"?>
<svg id="Layer_1" xmlns="http://www.w3.org/2000/svg" viewBox="0 0 512 512">
  <defs>
    <style>
      .cls-1 {
        fill: #fff;
      }
    </style>
  </defs>
  <path class="cls-1" d="M232.48,0C130.09,7.87,3.09,51.71,3.09,126.14c0,69.35,125.32,114.91,261.57,99.66,96.7-10.81,178.08-48.82,213.71-94.99-46.97,87.72-153.11,113.3-249.19,123.8,119.61,5.49,279.72-35.15,279.72-132.37,0-68.75-125.32-114.9-261.57-99.66-96.7,10.81-177.25,48.82-212.89,94.99C54.06,65.08,131.9,17.56,232.48,0ZM292.19,43.54c82.46-.66,145.62,25.22,145.62,62.05,0,5.04-1.18,10.05-3.44,14.97-33.9-21.49-93.82-38.89-158.94-41.71-6.5-.28-13.06-.41-19.64-.38-2.19.01-4.39.04-6.59.09-54.84,1.23-111.06,14.31-154.62,47.8,5.35-38.97,80.06-75.04,171.46-81.75,8.89-.65,17.63-1,26.16-1.07h0ZM255.93,98.39c6.23-.04,12.45.08,18.64.35,61.25,2.65,119.18,20.39,148.21,38.1-7.05,7.24-16.39,14.1-27.59,20.39-26.52-12.2-67.62-20.31-112.86-20.4-3.46,0-6.94.03-10.44.12-46.91,1.19-97.16,11.58-136.86,38.45-16.86-7.27-29.28-16.53-35.74-27.24,41.38-35.67,99.44-49.43,156.64-49.79h0ZM282.26,156.77c33.33.18,64.82,5.48,87.56,12.44-28.84,11.5-64.79,19.72-103.79,22.58-40.15,2.95-77.06-.26-106.31-8,33.28-18.02,73.8-25.94,112.67-26.92,3.3-.09,6.6-.12,9.87-.1h0ZM71.65,231.31c5.5,4.73,10.96,9.15,16.39,13.26.14.25.28.5.42.76l.63.02c65.6,49.24,127.53,55.75,200.38,55.39,0,0,0,0,0,0h0s0,0,0,0c-78.83,21.92-143.03,20.8-197.65-8.86,79.83,104.53,258.14,56.02,357.17-49.69-45.85,24.62-117.27,38.22-197.45,33.93-70.58-3.78-134.36-20.68-179.89-44.81h0ZM330.22,342.67c-72.39,35.82-153.31,45.32-212.19,11.97,5.23,17.99,15.75,30,30.15,37.99,16.58,9.21,38.76,12.63,62.86,10.18,36.49-3.71,76.79-20.97,107.37-48.01,3.87-4.04,7.82-8.09,11.81-12.13h0ZM263.83,410.52c-16.81,6.3-34.02,10.4-50.77,12.1-24.53,2.5-48.28-.16-68.31-9.41,16.12,15.89,34.16,27.02,51.09,31.99,16.7,4.91,31.8,4.01,43.84-2.76,10.01-5.63,18.58-15.58,24.15-31.92h0ZM132.75,429.66c8,27.32,20.12,54.92,40.65,82.34h41.07c.67-.84,1.48-1.42,1.86-2.52,5.45-15.56,11.78-30.08,18.88-43.85-14.2,3.94-29.74,3.14-44.98-1.33-19.96-5.86-39.88-17.85-57.48-34.65h0Z"/>
</svg>