<?xml version="1.0" encoding="UTF-8"?>
<svg id="Layer_1" xmlns="http://www.w3.org/2000/svg" viewBox="0 0 79.49 89.64">
  <defs>
    <style>
      .cls-1 {
        fill: #fff;
      }
    </style>
  </defs>
  <path class="cls-1" d="M30.73,89.64c-3.2,0-6.4,0-9.59,0-1.04,0-2.07-.08-3.08-.36-2.26-.63-3.23-1.75-3.34-4.05-.06-1.2-.02-2.4-.03-3.6,0-1.38-.55-2.43-1.71-3.23-5.74-3.97-9.42-9.44-11.6-16-.64-1.92-.62-3.94-1.03-5.89-.77-3.61-.12-7.18.6-10.67.56-2.72,1.72-5.34,3.16-7.74,1.64-2.75,3.64-5.26,6.03-7.42,1.23-1.12,2.82-1.2,4.18-.31.6.39.95.98.82,1.62-.49,2.4.94,3.68,2.64,4.89,1.36.97,2.85,1.75,4.06,2.93.29.29.73.38,1.09.08.38-.31.25-.73.08-1.1-.56-1.24-1.08-2.49-1.73-3.68-.67-1.22-.74-2.41-.2-3.67.19-.44.28-.92.46-1.36.59-1.5.49-2.71-.96-3.78-1.35-.99-1.2-1.46.38-2.01,7.17-2.47,14.21-2.34,21.27.61,5.15,2.15,9.28,5.41,12.8,9.7,3.85,4.7,5.56,10.09,6.28,16,.88,7.11-1.22,13.46-4.72,19.4-1.9,3.23-4.41,6.08-7.69,8.09-1.36.83-2.03,1.99-2.02,3.56,0,.72,0,1.44-.01,2.16-.04,3.57-2.16,5.68-5.82,5.8-.16,0-.32,0-.48,0-3.28,0-6.56,0-9.83,0h0ZM43.72,68.66c5.15.68,8.65-4.25,8.79-8.18.16-4.34-4.18-8.64-8.58-8.72-3.88-.07-8.76,3.87-8.64,8.85.1,4.28,3.95,8.03,8.43,8.04ZM26.22,60.66c.14-4.57-3.88-8.7-8.61-8.86-4.11-.14-8.28,4.02-8.52,8.5-.22,4.09,3.86,8.59,8.07,8.57,5.22-.03,8.5-2.66,9.06-8.2ZM30.58,74.34s0,.02,0,.03c.72,0,1.43,0,2.15,0,.16,0,.32-.01.47-.04,1.35-.25,2.02-1.17,1.47-2.39-.69-1.51-1.55-2.95-2.5-4.3-.71-1-1.65-1.07-2.44-.22-1.24,1.34-2.35,2.83-2.9,4.6-.41,1.31.22,2.14,1.61,2.31.7.09,1.43.02,2.14.02Z"/>
  <path class="cls-1" d="M65.14,65.47c-.45-2.62,2.86-5.15,5.54-5.04,2.61.1,5.02,2.55,4.96,5.17-.06,2.76-2.5,5.29-5.16,5.34-2.37.04-5.35-3.01-5.34-5.47Z"/>
  <path class="cls-1" d="M42.42,17.75c-3.3.01-5.17-1.84-5.2-5.14-.02-2.64,2.27-4.82,5.14-4.88,2.68-.06,5.02,2.46,4.99,5.35-.03,2.74-2.05,4.65-4.93,4.66Z"/>
  <path class="cls-1" d="M30.45,6.62c-1.86.04-3.06-1.16-3.14-3.16C27.25,1.73,28.84.07,30.62,0c1.48-.06,3.59,1.89,3.56,3.29-.03,1.76-1.74,3.28-3.74,3.33Z"/>
  <path class="cls-1" d="M76.24,48.88c1.88-.05,3.18,1.15,3.25,3,.06,1.75-1.52,3.56-3.11,3.56-1.51,0-3.42-1.91-3.42-3.42,0-1.53,1.63-3.08,3.28-3.13Z"/>
  <path class="cls-1" d="M68.55,37.85c1.52.04,3.1,1.61,3.11,3.09,0,1.57-1.77,3.17-3.4,3.06-1.61-.11-3.18-1.66-3.1-3.07.08-1.63,1.73-3.12,3.4-3.08Z"/>
</svg>