<?xml version="1.0" encoding="UTF-8"?>
<svg id="Layer_1" xmlns="http://www.w3.org/2000/svg" viewBox="0 0 512 512">
  <defs>
    <style>
      .cls-1 {
        fill: #fff;
      }
    </style>
  </defs>
  <path class="cls-1" d="M512,46.94l-88.83,83.83,84.97,143.02,3.86-4.8V46.94h0ZM0,48.16v242.98c4.82.63,10.61.97,16.45,1.03,12.77.13,23.29-.7,29.2-1.23l56.64-143.31L0,48.16ZM418.59,160.95l-7.57,4.9c-.16.1-5.77,3.59-7.41,4.61l-11.41,6.91.16.1c-5.29,3.29-6.75,4.21-12.75,7.94-3.04,1.89-3.12,1.93-6.01,3.73-21.82-11.73-45.51-20.75-73.14-27.84-34.76,10.5-71.57,25.69-108.34,39.95,15.26,18.38,32.23,24.36,49.31,24.58,19.81.25,40.07-8.37,54.02-18.02l7.96-5.51,7.99,11.54,124.18,89.63,48.52-32.25-65.51-110.26h0ZM116.68,163.9l-48.8,123.47,17.91,13.77,33.12-37.54,2.65-3.01,4-.25c1.61-.1,3.21-.15,4.78-.14,10.98.07,20.8,2.92,28.17,9.42,5.46,4.81,9.08,11.21,11.19,18.63l2.45-.15c12.9-.81,24.53,1.86,32.95,9.28,8.42,7.43,12.51,18.63,13.32,31.54l.08,1.16c6.93,1.31,13.13,4.04,18.17,8.48,8.42,7.43,12.51,18.63,13.32,31.53l.21,3.36c.69.22,1.37.46,2.04.71l2.19-3.07,5.88-8.26,3.03-4.25,7.88,5.62,63.92,45.54c6.95-1.71,11.1-4.38,13.4-7.62,2.31-3.24,3.48-8.03,2.82-15.17l-76.65-54.89-7.87-5.64,5.58-7.79,7.17-10.07,7.88,5.62,86.41,61.55c6.95-1.71,11.1-4.38,13.41-7.62,2.31-3.24,3.47-8.02,2.82-15.15l-99.39-70.51-7.9-5.6,11.2-15.79,7.9,5.6,99.4,70.52c6.96-1.71,11.11-4.38,13.42-7.62,2.31-3.24,3.48-8.04,2.82-15.19l-118.79-85.74c-15.76,9.35-35.93,16.83-57.61,16.56-25.37-.32-52.51-12.44-72.47-43.08-2.92-4.48-1.65-10.48,2.82-13.4.58-.38,1.2-.69,1.85-.94,14-5.32,28.14-10.94,42.32-16.52l-99.02-7.35h0ZM130.56,279.66l-51.16,57.99c1,7.26,3.27,11.77,6.33,14.47,3.06,2.7,7.83,4.39,15.15,4.48l51.16-57.99c-1-7.26-3.27-11.77-6.33-14.47-3.06-2.7-7.82-4.39-15.15-4.48h0ZM177.14,307.42l-57.78,65.48c1,7.26,3.27,11.77,6.33,14.47,3.07,2.7,7.83,4.39,15.15,4.47l57.78-65.48c-1-7.26-3.27-11.77-6.33-14.47-3.06-2.7-7.82-4.39-15.15-4.48h0ZM208.7,348.6l-51.16,57.99c1,7.26,3.27,11.77,6.33,14.47,3.06,2.7,7.83,4.39,15.15,4.48l51.16-57.98c-1-7.26-3.27-11.77-6.33-14.48-3.06-2.7-7.82-4.39-15.15-4.48h0ZM235.27,390.7l-41.73,47.63c.99,7.27,3.27,11.79,6.33,14.5,3.06,2.7,7.82,4.39,15.13,4.48l41.73-47.63c-1-7.27-3.27-11.79-6.34-14.5-3.06-2.7-7.82-4.39-15.13-4.48h0ZM273.29,395.85c1.82,4.97,2.88,10.48,3.24,16.34l.25,3.98-8.9,10.16,28.75,20.48c6.95-1.71,11.1-4.38,13.4-7.62,2.31-3.24,3.48-8.03,2.83-15.16l-39.56-28.18h0Z"/>
</svg>