<?xml version="1.0" encoding="UTF-8"?>
<svg id="Layer_1" xmlns="http://www.w3.org/2000/svg" viewBox="0 0 512 512">
  <defs>
    <style>
      .cls-1 {
        fill: #fff;
      }
    </style>
  </defs>
  <path class="cls-1" d="M221.03,0l-4.66,39.59,37.48,29.38,27.23-57.36C260.28,1.13,240.64.47,221.03,0h0ZM153.03,42.31c-27.8,3.36-49.24,18.23-67.5,38.77h.03l110.53,71.77s-43.07-110.53-43.07-110.53ZM306.81,74.02l21.39,98.03-104.44-27.37,46.5,95.81-161.2-102.47c-4.55,5.59-8.83,11.43-12.86,17.52-33.01,49.83-48.21,115.92-49.19,179.69,46,22.5,73.2,46.02,84.88,70.58,10.5,22.07,6.28,44.78-7.27,62.2,28.91,26.81,78.7,43.14,129.74,43.96,51.38.82,103.16-13.85,136.01-44.47-6.92-7.95-11.94-16.45-14.33-25.72-3.21-12.44-1.09-25.86,5.95-38.16,13.48-23.55,43.16-45.02,91.79-68.44-1.01-60.38-15.89-126.39-48.73-177.03-26.83-41.37-64.83-72.7-118.24-84.13h0ZM170.05,267.61c31.82,0,57.61,25.8,57.61,57.61s-25.8,57.61-57.61,57.61-57.61-25.8-57.61-57.61,25.79-57.61,57.61-57.61ZM341.42,267.61c31.82,0,57.61,25.8,57.61,57.61s-25.8,57.61-57.61,57.61-57.61-25.8-57.61-57.61,25.8-57.61,57.61-57.61ZM255.72,366.36c15.75,33.26,28.26,66.53,34.47,99.78-16.94,14.78-47.31,16.93-68.94,0,8.39-33.26,18.48-66.53,34.47-99.78Z"/>
</svg>