<?xml version="1.0" encoding="UTF-8"?>
<svg id="Layer_1" xmlns="http://www.w3.org/2000/svg" viewBox="0 0 512 512">
  <defs>
    <style>
      .cls-1 {
        fill: #fff;
      }
    </style>
  </defs>
  <path class="cls-1" d="M160.96,99.77C115.13,141.83,54.24,181.62,0,193.63c42.66,15.69,97.14,20.42,146.98,9.99,58.11,34.18,139.76,35.11,201.71,0,49.09,16.69,105.12,14.38,163.31-10.16-64.99-10.48-136.38-56.28-169.38-93.69-60.55,43.23-121.1,35.07-181.66,0h0ZM15.07,224.18c18.91,32.26,52.88,86.46,97.92,142.99,29.72,37.3,83.58,33.92,141.8,33.92,53.79,0,111.6.77,139.24-33.92,41.16-51.66,74.83-100.53,96.25-133.11-136.24,92.22-345.61,101.66-475.21-9.89h0Z"/>
</svg>