<?xml version="1.0" encoding="UTF-8"?>
<svg id="Layer_1" xmlns="http://www.w3.org/2000/svg" viewBox="0 0 512 512">
  <defs>
    <style>
      .cls-1 {
        fill: #fff;
      }
    </style>
  </defs>
  <polygon class="cls-1" points="247.22 0 264.34 87.24 335.28 57.9 271.17 122.01 279.82 166.09 262.43 170.74 273.38 211.56 314.16 200.6 309.63 183.78 353.23 168.87 376.62 81.51 386.66 157.39 470.55 128.71 403.35 187.34 462.29 233.25 376.57 210.73 342.84 240.16 328.89 226.21 299.03 256.11 328.89 285.97 341.71 273.15 376.05 303.14 463.25 279.8 402.65 326.35 469.72 384.86 384.92 355.87 374.62 429.85 351.24 344.3 309.2 329.96 314.16 311.44 273.38 300.49 262.43 341.31 279.82 345.96 271.16 389.94 335.28 454.01 264.34 424.72 247.22 512 230 424.32 161.02 452.32 223.18 389.6 214.66 346.21 232.96 341.3 222 300.49 181.19 311.44 186.23 330.26 145.5 344.21 122.16 429.63 111.9 355.69 27.19 384.69 94.21 326.18 33.58 279.58 120.86 302.97 154.28 273.8 166.45 285.97 196.32 256.11 166.45 226.2 153.11 239.55 120.34 210.95 34.49 233.51 93.56 187.57 26.32 128.88 110.16 157.57 120.17 81.72 143.55 169 185.8 183.43 181.19 200.6 222.01 211.56 232.96 170.74 214.62 165.83 223.18 122.36 161.02 59.6 230 87.59 247.22 0 247.22 0"/>
</svg>