<?xml version="1.0" encoding="UTF-8"?>
<svg id="Layer_1" xmlns="http://www.w3.org/2000/svg" viewBox="0 0 512 512">
  <defs>
    <style>
      .cls-1 {
        fill: #fff;
      }
    </style>
  </defs>
  <path class="cls-1" d="M317.31,258.17c1.29,9.17-5.1,17.64-14.27,18.93,0,0-.01,0-.02,0l-163.72,22.92-23.72,36.16-91.88,12.86,23.72-36.21-27.29,3.82c-.31,0-.62.13-.94.18-.78.11-1.56.16-2.34.16C7.6,317.05.05,309.59,0,300.33c-.05-8.44,6.18-15.6,14.55-16.71.32,0,.63,0,.95-.09l27.29-3.82-32.74-28.37,91.82-12.84,32.74,28.36,163.73-22.91c.78-.11,1.56-.16,2.34-.16,8.34-.01,15.43,6.11,16.63,14.37h0ZM276.5,215.31c3.07-4.72,7.2-8.65,12.06-11.48,4.52-2.6,9.72-3.77,14.92-3.38,5.42.51,10.62,2.45,15.06,5.61,5.29,3.75,9.8,8.51,13.26,14,4.21,6.55,7.36,13.73,9.32,21.27,2.12,7.97,3.07,16.21,2.85,24.46-.18,7.55-1.49,15.04-3.88,22.2-2.04,6.25-5.27,12.04-9.5,17.07-3.65,4.36-8.41,7.65-13.79,9.51-4.96,1.63-10.29,1.73-15.3.28-5.18-1.55-9.94-4.26-13.91-7.92-2.33-2.1-4.47-4.4-6.38-6.89l-35.89,5.02c2.23,6.09,4.87,12.02,7.89,17.76,5.44,10.45,12.43,20.02,20.74,28.37,7.53,7.65,16.58,13.64,26.57,17.57,9.77,3.79,20.43,4.65,30.68,2.47,11.14-2.58,21.3-8.33,29.25-16.54,8.78-8.73,16.03-20.3,21.25-33.93,5.6-14.96,8.73-30.73,9.25-46.69.68-17.6-1.38-35.2-6.09-52.17-4.25-15.87-11.21-30.89-20.56-44.4-8.45-11.93-18.25-21.07-28.66-27.13-9.37-5.66-20.14-8.59-31.09-8.47-10.47.33-20.62,3.7-29.22,9.69-9.14,6.41-16.78,14.71-22.42,24.35-6.05,10.22-10.54,21.28-13.33,32.82-1.95,7.85-3.27,15.84-3.95,23.9l34.68-4.86c1.52-4.41,3.6-8.6,6.18-12.48ZM496.98,176.41c-12.15-39.22-30.34-72-52.08-97.15-20.63-23.92-43.97-40.32-67.95-49.16-22.41-8.24-45.1-9.72-66.66-4.72-20.08,4.67-39.13,14.97-56.26,30.71-16.03,14.69-29.01,32.94-39.12,53.15-9.82,19.96-17.03,41.1-21.45,62.9-4.57,22.19-6.75,44.81-6.51,67.46l25.11-3.51c.41-15.1,2.29-30.12,5.61-44.86,3.69-16.65,9.67-32.71,17.76-47.73,8.19-14.9,18.59-27.93,31.13-37.9,13.22-10.5,27.66-16.66,42.58-18.5,15.75-1.97,31.99.83,47.74,8.35,16.53,7.89,32.34,20.88,46.13,38.66,14.29,18.43,26.15,41.65,34.09,68.84,7.86,26.93,11.14,54.98,9.72,83-1.39,26.74-7.12,51.61-16.37,73-8.94,20.66-20.97,37.68-35.38,49.9-13.69,11.64-29.29,18.81-46.1,20.74-15.69,1.68-31.54-1.05-45.77-7.89-13.69-6.36-26.49-16.11-37.84-28.36-11.46-12.53-21.08-26.62-28.6-41.85-6.82-13.72-12.24-28.09-16.17-42.89l-25,3.45c5.04,22.17,12.48,43.73,22.2,64.29,9.44,20.05,21.46,38.77,35.77,55.69,14.44,16.88,30.93,30.94,48.83,40.91,19.1,10.64,40.06,16.75,61.94,16.53,23.64-.23,46.08-7.81,66.18-21.99,21.52-15.18,40.03-37.69,54.05-66.08,14.73-29.82,24.12-65.36,26.74-104.11,2.68-40.84-2.17-81.83-14.29-120.92v.04Z"/>
</svg>