<?xml version="1.0" encoding="UTF-8"?>
<svg id="Layer_1" xmlns="http://www.w3.org/2000/svg" viewBox="0 0 512 512">
  <defs>
    <style>
      .cls-1 {
        fill: #fff;
      }
    </style>
  </defs>
  <path class="cls-1" d="M339.27,0C295.44,0,251.62,16.59,218.21,50c-47.23,47.22-61.15,115.2-41.79,174.68L1.04,400.07v27.72l183.26-183.26c2.96,6.29,6.3,12.44,10.06,18.4L1.04,456.25v55.75h50.57l195.81-195.81c5.94,3.78,12.07,7.18,18.33,10.16l-185.68,185.65h29.1l177.37-177.37c59.41,19.22,127.27,5.26,174.41-41.89,44.59-44.59,59.21-107.57,44.45-164.52l-113.35,113.38-96.93-25.77-25.8-96.93L382.7,5.52c-14.23-3.67-28.82-5.52-43.43-5.52h0Z"/>
</svg>