<?xml version="1.0" encoding="UTF-8"?>
<svg id="Layer_1" xmlns="http://www.w3.org/2000/svg" viewBox="0 0 512 512">
  <defs>
    <style>
      .cls-1 {
        fill: #fff;
      }
    </style>
  </defs>
  <path class="cls-1" d="M255.35,0C166.77-.18,80.62,45.73,33.1,128.04-37.62,250.54,4.22,406.91,126.72,477.64c122.5,70.73,278.85,28.78,349.57-93.72,70.73-122.5,28.85-278.81-93.66-349.53C342.44,11.17,298.6.09,255.35,0h0ZM334.09,113.8c26.03.11,51.84,6.59,75.31,20.13,79.06,45.62,101.97,154.32,51.04,242.5-50.93,88.17-156.63,122.77-235.69,77.15-79.06-45.62-101.92-154.4-50.99-242.57,35.82-62,98.68-97.47,160.33-97.21h0ZM410.2,160c14.94,24.33,20.75,56.22,16.86,90.22-7.3-13.24-17.92-24.49-31.55-32.34-43.66-25.14-102.13-6.13-130.25,42.46-28.13,48.58-15.47,108.68,28.19,133.81,11.46,6.6,23.95,10.14,36.65,10.91-39.71,24.59-83.94,29.92-118.76,9.82-2.15-1.24-4.23-2.57-6.25-3.97,8.74,9.31,18.89,17.45,30.4,24.09,70.03,40.41,163.11,9.88,208.23-68.23,42.54-73.63,27.08-162.93-33.5-206.78h0ZM352.33,227.6c11.19.13,22.3,2.98,32.44,8.82,34.63,19.93,44.54,67,22.23,105.53-22.31,38.53-68.2,53.61-102.83,33.67-30.03-17.29-41.41-55.06-29.35-89.92,4.64,18.49,21.49,32.34,41.36,32.34,23.41,0,42.59-19.21,42.59-42.62,0-21.07-15.55-38.71-35.74-42.01,8.72-3.63,17.9-5.62,27.06-5.8.75-.01,1.49-.02,2.24,0h0Z"/>
</svg>