<?xml version="1.0" encoding="UTF-8"?>
<svg id="Layer_1" xmlns="http://www.w3.org/2000/svg" viewBox="0 0 512 512">
  <defs>
    <style>
      .cls-1 {
        fill: #fff;
      }
    </style>
  </defs>
  <path class="cls-1" d="M238.34,37.88c-2.49,0-4.97.03-7.44.1-1.95.05-3.89.11-5.83.2-9.5,1.69-13.88,5.85-16.27,10.61-2.62,5.25-2.52,12.31.4,18.59,2.93,6.28,8.3,11.42,15.79,13.34,7.5,1.92,17.82.93,31.39-7.74l10.84,16.97c-17.05,10.89-33.54,13.77-47.21,10.27-13.67-3.5-23.82-13.06-29.06-24.31-4.94-10.6-5.85-23.04-1.11-34.08-46.25,7.48-88.13,25.21-120.29,50.18-10.57,11.52-11.61,24.9-6.97,34.05,5.2,10.27,17.47,17.76,42,10l6.1,19.2c-30.8,9.74-56.18-.63-66.04-20.07-2.4-4.74-3.87-9.87-4.45-15.15-5.19,6.16-9.87,12.56-14.01,19.23l.14.06c-9.28,21.14-9.49,35.78-5.79,45.3,3.7,9.52,11.46,15.56,23.41,18.89,23.89,6.66,62.57-1.38,89.81-21.72,11.66-8.71,22.71-29.83,23.68-46.2.48-8.19-1.26-14.66-4.68-18.79-3.43-4.13-8.91-7.22-20.27-7.11l-.2-20.14c15.61-.16,28.29,5.12,35.97,14.38,7.68,9.26,9.98,21.18,9.29,32.83-1.37,23.31-13.57,47.6-31.72,61.16-32.2,24.05-74.72,34.06-107.26,24.99-15.07-4.2-28.42-13.35-35.29-27.51-10.29,48.97,4.66,94.47,33.1,125.95,3.72,4.12,7.67,8.01,11.82,11.62-2.97-8.5-4.33-17.35-4.01-25.96.57-15.44,6.55-30.55,18.56-40.98,9.84-8.56,23.44-13.5,39.7-13.47,1.08,0,2.19.02,3.3.06,2.53.11,5.13.33,7.78.67l-2.63,19.97c-16.8-2.21-27.7,1.64-34.95,7.95-7.25,6.31-11.25,15.75-11.65,26.54-.8,21.58,13.01,46.78,42.77,54.08l-.03.2c29.3,5.59,62,.4,94.83-19.63.02-.01.05-.02.07-.03,6.83-4.8,10.51-9.49,12.33-13.54,2.14-4.78,2.09-8.94.57-13.4-3.04-8.93-13.94-18.12-23.94-20.68-16.17-4.14-26.44,1.55-31.25,8.32-4.81,6.77-5.11,13.42,2.32,19.19l-12.36,15.9c-15.29-11.89-16.26-32.85-6.36-46.77,7.43-10.44,20.46-17.59,36.17-18.05.65-.02,1.32-.04,1.99-.03,4.64.03,9.47.67,14.48,1.95,16.71,4.28,32.16,16.46,38.02,33.68,1.53,4.48,2.25,9.36,2.02,14.35,18.01-9.2,37-17.37,56.34-23.51,32.5-14.85,46.59-40.88,46.04-62.8-.55-22.08-14.21-40.67-45.67-43.78l1.99-20.04c39.51,3.91,63,32.17,63.78,63.31.45,18.15-6.2,37.03-19.6,53.11,17.32-1.94,34.53-1.61,51.22,1.75-3.4-6.97-5.04-14.52-4.81-22.02.73-23.75,20.93-45.9,52.67-46.24,2.12-.02,4.28.06,6.5.23l-1.62,20.07c-26.86-2.15-36.96,11.95-37.41,26.57-.44,14.46,9.21,30.65,36.88,32.8,30.5.27,52.36-16.27,63.07-40.85,14.34-32.91,7.54-82.24-37.55-127.36-.85-.85-1.7-1.72-2.56-2.56-.48,4.09-1.53,8.02-3.06,11.69-7.81,18.74-26.11,31.39-45.13,34.92-26.22,4.87-47.73-5.76-57.65-21.99-9.92-16.23-7.32-39.17,10.54-51.25l11.28,16.7c-9.6,6.5-10,15.29-4.65,24.04,5.35,8.75,17.43,16.33,36.81,12.73,12.18-2.27,25.75-12.21,30.21-22.9,2.23-5.35,2.66-10.63.44-16.67-1.81-4.91-5.59-10.52-12.63-16.43l-.2-.17c-29.44-22.19-60.71-38.14-92.41-48.66.02.03.05.06.07.1,7.2,13.17,7.74,28.11,3.3,41.32-8.87,26.43-36.71,47.25-71.16,46.1-7.49-.25-14.61,3.36-20.68,10.41-6.06,7.04-10.49,17.36-11.52,28.36-2.05,21.98,7.46,46.22,44.55,58.19l-6.2,19.16c-44.27-14.29-61.24-49.08-58.43-79.21,1.41-15.06,7.23-29.06,16.33-39.64,9.11-10.58,22.06-17.89,36.61-17.41,25.91.86,45.61-15.18,51.39-32.4,2.89-8.61,2.52-17.17-1.89-25.22-4.28-7.81-12.75-15.54-27.92-21.18-18.44-3.2-36.81-4.71-54.82-4.65h0ZM347.42,309.38c-45.17,3.67-94.15,25.22-135.01,50.18-60.33,36.85-123.81,28.81-168.85-4.61,17.72,63.41,80.51,76.28,146.02,60.24,6.56-2.46,13-7.05,18.49-12.96,7.6-8.2,13.11-18.83,14.85-27.61l19.77,3.91c-2.63,13.34-9.78,26.58-19.83,37.42-9.64,10.39-22.21,18.7-36.74,20.88-7.29,16.24-13.29,31.98-15.73,43-3.83,17.31,15.31,23.95,23.88,6.5,20.5-41.75,49.43-78.91,85.57-110.96,28.09-18.48,52.16-41.28,67.59-65.97h0Z"/>
</svg>