<?xml version="1.0" encoding="UTF-8"?>
<svg id="Layer_1" xmlns="http://www.w3.org/2000/svg" viewBox="0 0 72.27 72.66">
  <defs>
    <style>
      .cls-1 {
        fill: #fff;
      }
    </style>
  </defs>
  <path class="cls-1" d="M55.98.65c.65-.62,1.3-.62,1.94-.62,4.08,0,8.16-.03,12.24,0,1.64.01,1.83.21,1.89,1.77.15,4.07.39,8.14.05,12.22-.12,1.38-.63,2.16-1.84,2.77-8.29,4.16-16.61,8.25-25.01,12.17-.51.24-1,.49-1.5.74-.55.28-1.15.91-1.73.43-.65-.55.05-1.14.3-1.69.26-.58.55-1.16.83-1.73,3.31-6.75,6.36-13.62,10.03-20.19.82-1.46,1.45-3.02,2.17-4.54.24-.5.48-1,.64-1.34Z"/>
  <path class="cls-1" d="M70.91,55.68c1.01.84,1.13,1.61,1.13,2.43,0,4.15.03,8.31,0,12.46-.01,1.52-.31,1.89-1.79,1.97-1.74.09-3.48.29-5.23-.24-1.94-.58-3.98-.32-5.96-.22-1.87.1-2.97-.59-3.78-2.22-2.84-5.72-5.78-11.38-8.62-17.1-1.53-3.07-2.93-6.21-4.4-9.31-.23-.48-.79-.98-.23-1.48.5-.45,1.06,0,1.55.23,3.52,1.71,7.05,3.4,10.54,5.16,4.92,2.48,9.8,5.03,14.83,7.3.8.36,1.55.81,1.96,1.02Z"/>
  <path class="cls-1" d="M16.05.78c.14.25.39.66.6,1.09,1.89,3.88,3.74,7.77,5.65,11.63,2.06,4.15,4.18,8.27,6.27,12.41.43.86.8,1.74,1.18,2.62.19.44.41.93-.07,1.3-.44.35-.92.11-1.35-.1-1.3-.62-2.62-1.19-3.87-1.9-4.04-2.29-8.35-4.02-12.47-6.13-3.4-1.75-6.85-3.41-10.29-5.08-.79-.38-1.26-.95-1.4-1.81-.1-.63-.24-1.27-.25-1.9C0,9.32-.02,5.72.02,2.12.04.33.34.04,2.16.02c3.92-.04,7.84,0,11.75,0,.72,0,1.45.04,2.13.76Z"/>
  <path class="cls-1" d="M16.21,71.25c-.61.74-1.25.79-1.9.79-4.16,0-8.31.03-12.47,0-1.6-.02-1.8-.22-1.82-1.83-.04-4.16,0-8.31-.01-12.47,0-1.09.45-1.76,1.46-2.22,9.1-4.1,17.94-8.75,26.93-13.09.43-.21.89-.58,1.32-.24.59.46.16,1.03-.07,1.51-1.83,3.82-3.67,7.64-5.53,11.44-2.46,5.02-4.94,10.02-7.41,15.03-.21.43-.4.86-.5,1.08Z"/>
  <path class="cls-1" d="M40.92,36.25c.49-.41.64-.63.84-.69,5.73-1.97,11.49-3.88,17.19-5.92,1.81-.65,3.2-.49,4.5.99,1.21,1.37,2.62,2.58,3.86,3.93,1.01,1.1,1.03,1.61.03,2.67-1.58,1.69-3.27,3.28-4.89,4.93-.7.71-1.53.85-2.42.57-1.29-.4-2.57-.85-3.86-1.29-4.97-1.69-9.94-3.38-15.26-5.19Z"/>
  <path class="cls-1" d="M39.73,64.89c-.79.79-1.58,1.58-2.37,2.37-.75.75-1.5.8-2.3.06-1.63-1.52-3.14-3.17-4.94-4.51-1.11-.83-1.04-2.09-.63-3.29,1.28-3.77,2.58-7.54,3.88-11.3.6-1.73,1.21-3.46,1.84-5.18.18-.5.25-1.2,1-1.14.57.05.62.64.77,1.08,1.78,5.2,3.49,10.42,5.39,15.58.74,1.99.65,3.52-1.1,4.84-.57.43-1.02,1-1.53,1.51h0Z"/>
  <path class="cls-1" d="M7.23,32.29c3.68-3.65,2.83-3.57,7.81-1.87,4.69,1.59,9.36,3.24,14.04,4.87.42.15,1.08.07,1.05.74-.03.57-.6.68-1.04.84-.75.27-1.52.5-2.27.76-4.68,1.6-9.36,3.21-14.05,4.8-2.08.7-2.43.53-3.9-1.12-1.22-1.37-2.57-2.63-3.82-3.98-1.14-1.24-1.14-1.58,0-2.82.7-.77,1.46-1.48,2.2-2.21Z"/>
  <path class="cls-1" d="M32.38,7.14c.79-.79,1.54-1.62,2.38-2.36,1.19-1.06,1.65-1.07,2.85.06,1.57,1.48,3.04,3.05,4.58,4.56.78.77.89,1.63.55,2.63-.8,2.34-1.43,4.75-2.41,7.01-1.37,3.15-2.45,6.4-3.47,9.67-.14.44-.11,1.08-.66,1.15-.75.1-.81-.64-.99-1.14-.89-2.56-1.82-5.1-2.61-7.69-.87-2.82-1.7-5.64-3.06-8.27-.68-1.33-.46-2.43.64-3.42.77-.69,1.47-1.46,2.21-2.19h0Z"/>
</svg>