<?xml version="1.0" encoding="UTF-8"?>
<svg id="Layer_1" xmlns="http://www.w3.org/2000/svg" viewBox="0 0 512 512">
  <defs>
    <style>
      .cls-1 {
        fill: #fff;
      }
    </style>
  </defs>
  <path class="cls-1" d="M258.15,0C179.3,0,111.7,66.29,92.49,157.44c55.96-8.16,108.43-23.38,163.28-47.83l4.38-1.92,4.21,2.19c52.42,27.22,103.57,43.51,159.8,49.22C405.41,67.09,337.48,0,258.15,0h0ZM259.51,129.57c-60.89,26.67-119.73,42.42-183,49.85,7.13,34.84,7.33,69.93-.53,104.94,94.71,44.13,245.7,45.77,361.25-.13-11.41-34.49-12.44-69.64-1.26-104.38-62.61-4.49-119.46-21.28-176.47-50.28h0ZM245.19,164.7h19.86v135.5h-19.86v-135.5h0ZM182.84,176.57h19.82v107.82h-19.82v-107.82h0ZM305.58,176.57h19.82v107.82h-19.82v-107.82h0ZM123.45,192.38h19.82v84.09h-19.82v-84.09h0ZM364.98,192.38h19.82v84.09h-19.82v-84.09h0ZM406.08,316.21c-15.17,4.54-30.72,8.35-46.44,11.5l-20.39,67.95c27.7-18.39,50.91-45.94,66.82-79.45h0ZM111.71,319.26c14.8,29.97,35.48,55,59.99,72.69l-18.76-62.48c-14.21-2.77-27.99-6.18-41.23-10.21h0ZM337.8,331.62c-54.76,8.67-111.1,9.11-163.04,1.53l22.11,73.72c19.09,9.04,39.76,13.99,61.28,13.99,19.72,0,38.72-4.16,56.45-11.8l23.2-77.43h0ZM130.44,381.64c-20.61,22.87-38.62,47.06-51.54,76.53,74.49-9.27,141.86,15.57,178.22,53.83,42.09-37.77,110-59.06,181.24-46.93-15.99-31.15-35.34-55.14-57.21-78.49-33.08,33.68-75.87,54.09-123,54.09s-94.03-22.42-127.71-59.03h0Z"/>
</svg>