<?xml version="1.0" encoding="UTF-8"?>
<svg xmlns="http://www.w3.org/2000/svg" version="1.1" viewBox="0 0 512 512">
  <defs>
    <style>
      .cls-1 {
        fill: #fff;
      }
    </style>
  </defs>
  <!-- Generator: Adobe Illustrator 28.7.5, SVG Export Plug-In . SVG Version: 1.2.0 Build 176)  -->
  <g>
    <g id="Layer_1">
      <path class="cls-1" d="M31,0v11.7c0,112,11.4,223.8,44.9,314.4,33.4,90.6,89.9,160.8,178.7,185.2l2.4.7,2.4-.5c97.4-20.8,154.5-91.2,185.9-182.8,31.3-91.6,38.4-204.9,38.4-316.9V0l-11.6,1.7c-143.2,20.4-286.3,20.4-429.5,0L31,0h0ZM51.5,23.2c68.7,9.3,137.4,13.9,206,13.9v200.4h189.8c-5.3,29.9-12.3,58.4-21.3,84.6-29.7,86.7-80.1,149.1-168.5,168.9,0,0,0,0,0,0v-253.6H71.9c-14-66.2-19.8-139.9-20.4-214.3h0Z"/>
    </g>
  </g>
</svg>