<?xml version="1.0" encoding="UTF-8"?>
<svg id="Layer_1" xmlns="http://www.w3.org/2000/svg" viewBox="0 0 512 512">
  <defs>
    <style>
      .cls-1 {
        fill: #fff;
      }
    </style>
  </defs>
  <path class="cls-1" d="M262.78,0c-11.26-.05-22.51.65-33.63,2.06l-2.92.27c1.91,20.75-1.28,35.63-7.78,43.24s-17.39,11.39-39.33,6.89l-20.36-4.17,9.18,18.64c6.26,12.71,3.15,26.29-5.91,34.19-9.06,7.91-24.85,11.54-48.81-1.57l-18.8-10.29,3.9,21.08c3.62,19.57-1.98,28.77-11.07,34.85-9.09,6.08-23.56,7.87-36.12,5.15l-.15.7-2.5-1.65c-9.17,32.76-11.5,71.15-4.63,115.57l16.54,102.56,76.59-14.42,3.77,20.01-16.76,3.16,48.52,138.72h27.66l-8.51-67.43,20.19-2.55,8.83,69.97h32.26v-71.17h20.36v71.17h32.26l8.83-69.98,20.19,2.55-8.51,67.43h27.77l48.32-138.16-19.76-3.72,3.77-20.01,76.47,14.4,19.87-102.65c13.76-89.21-10.45-154.39-53.07-198.25C386.82,22.74,324.92.28,262.8,0h-.02ZM246.97,21.94c49.65,32.12,43.26,106.53-21.34,77.17,37.88,74.02-26.77,105.84-76.09,60.14,4.24,40.97-43.68,52.32-75.52,12.05,8.67-1.27,17.11-4.2,24.56-9.18,11.51-7.7,19.57-20.95,20.81-37.9,22.72,7.48,42.91,3.7,56.03-7.75,11.94-10.42,17.59-26.26,15.65-42.09,18.43.79,33.3-4.39,42.86-15.59,8.31-9.73,12.12-22.37,13.04-36.85h0ZM179.53,204.96c35.83,0,64.87,29.04,64.87,64.87s-29.04,64.87-64.87,64.87-64.87-29.04-64.87-64.87,29.05-64.87,64.87-64.87h0ZM351.17,204.96c35.83,0,64.87,29.04,64.87,64.87s-29.04,64.87-64.87,64.87-64.87-29.04-64.87-64.87,29.05-64.87,64.87-64.87h0ZM263.28,291.83l43.51,110.69-18.55,7.68-24.95-38.65-24.95,38.65-19.2-7.68,44.15-110.7h0Z"/>
</svg>