<?xml version="1.0" encoding="UTF-8"?>
<svg id="Layer_1" xmlns="http://www.w3.org/2000/svg" viewBox="0 0 512 512">
  <defs>
    <style>
      .cls-1 {
        fill: #fff;
      }
    </style>
  </defs>
  <path class="cls-1" d="M209.43,17.84c-16.23,16.54-17.17,24.67-25.36,47.44,2.91,9.88,5.57,18.29,9.88,27.14,5.57.31,11.63.51,16.58.46-6.6-11.03-8.94-20.87-5.11-38.11,4.65,20.58,13.88,32.41,22.91,37.09,3.28-.36,6.44-.77,9.48-1.24-6.76-11.17-9.18-21.04-5.31-38.45,4.21,18.66,12.2,30.12,20.38,35.59,5.03-1.13,10.03-2.42,15.05-3.82-5.96-10.47-7.95-20.2-4.29-36.69,3.63,16.07,10.06,26.81,17,32.97,5.5-1.7,10.04-3.13,14.97-4.7-.74-6.25-.45-13.17,1.15-20.65l2.03-9.51,19.02,4.06-2.03,9.51c-3.93,18.38,1.43,26.39,7.89,30.97,6.46,4.59,15.87,3.74,17.32,2.81l8.19-5.25,10.5,16.37c-4.17,2.53-8.54,5.88-12.77,7.63,20.15,29.91,34.77,66.41,26.75,101.08-2.56,10.24-6.52,19.71-12.66,27,13.75,13.11,22.92,23.8,33.53,37.28-4.01-2.58-8.2-5.23-12.63-7.96-12.31-7.57-25.75-15.36-37.79-21.4-17.3-8.43-33.89-19.67-51.57-22.17-24.37-3.21-49.99,5.18-79.22,22.75,8.51,9.42,14.35,16.72,21.95,26.24-7.54-4.69-15.83-9.8-25.02-15.38-35.17-18.89-70.65-52.11-108.52-54.01-33.02-1.18-64.78,16.16-96.89,41.67l-4.81,3.82v259h34.54c48.82-18.84,86.75-62.29,104.84-102.13l.27-.61.35-.56c10.22-16.48,12.05-32.08,18.14-48.33,6.1-16.25,18.27-32.11,45.25-41.87,4.7-2.33,5.48-1.53,9.33,1.51,32.92,25.94,61.9,34.6,89.94,34.95,35.23-1.68,63.14-10.68,92.58-20.94-4.29,3.81-9.48,7.79-15.11,11.63-16.56,11.28-36.97,21.53-50.03,26.8-15.9,2.17-30.64,2.61-45.34.67-10.76,13.06-27.63,22-40.36,28.82,69.06,15.15,125.2.98,180.86-24.74-10.29-1.96-20.54-3.99-30.25-5.86,34.18-4.78,70.21-4.07,102.33-3.81,4.41-.02,7.79-.49,9.4-.96,15.31-55.18-4.42-105.77-37.05-156.9-32.7-51.24-77.99-101.68-110.1-154.55-22.8-18.65-52.51-33.99-83.76-49.89-22.03,4.59-44.33,10.09-66.39,15.23h0ZM301.69,94c-12.62,3.89-25.62,8.02-36.58,10.82,2.73,5.33,4.04,11.52,3.67,17.51,11.92.95,22.78-2.18,31.3-6.87,5.23-2.88,9.44-6.53,12.33-9.68-4.16-2.96-7.84-6.93-10.72-11.78h0ZM243.11,109.89c-12.71,1.23-26.57,2.55-37.88,2.42,2.58,5.16,4.08,13.04,9.19,16.03,12.08,1.26,22.26,2.16,32.32-1.89,5.87-3.47,1.96-16.27-3.63-16.56ZM205.32,336.06c-19.01,7.82-24.4,16.36-28.97,28.53-4.32,11.52-6.73,27.09-15.65,44.31,34.89-6.89,75.23-22.94,101.4-43.31-18.39-5.51-37.33-14.97-56.79-29.53h0ZM215.38,413.19c-20.23,7.82-44.12,17.44-64.5,15.19-14.99,29.88-36.34,59.43-71.19,81.01h91.49c23.3-32.2,41.13-61.13,44.19-96.2h0Z"/>
</svg>