<?xml version="1.0" encoding="UTF-8"?>
<svg id="Layer_1" xmlns="http://www.w3.org/2000/svg" viewBox="0 0 512 512">
  <defs>
    <style>
      .cls-1 {
        fill: #fff;
      }
    </style>
  </defs>
  <path class="cls-1" d="M322.52,0c-21.62,37.88-27.3,83.66,6.74,79.84C356.89,76.75,348.03,33.58,322.52,0h0ZM182.24,4.59c-19.62,38.8-22.9,84.77,10.9,79.45,27.43-4.32,16.33-47.04-10.9-79.45h0ZM437.2,91.07c-25.2,34.85-35.24,79.55-.93,79.99,27.85.36,23.14-43.55.93-79.99h0ZM72.12,94.8c-19.2,37.77-20.23,81.7,7.6,79.38,34.3-2.87,20.51-46.54-7.6-79.38ZM321.88,104.41c-63.83,2.6-57.76,136.28,2.98,133.83,59.71-2.4,59.82-136.37-2.98-133.83h0ZM198.95,106.53c-.95.02-1.89.1-2.87.18-63.61,5.49-50.42,138.71,10.12,133.51,58.58-5.03,52.65-134.78-7.25-133.69ZM103.83,202.3c-1.85-.02-3.72.07-5.67.32-63.3,8.02-43.88,140.61,16.36,133,57.36-7.24,46.65-132.67-10.69-133.33h0ZM423.64,203.85c-63.88-1.18-67.13,132.58-6.35,133.72,59.75,1.13,69.2-132.55,6.35-133.72h0ZM257.2,281c-65.45,1.44-14.91,69.08-130.6,108.4-89.67,30.47-35.36,122.28,41.39,122.6,42.13.18,57.16-33.08,91.65-32.93,39.16.17,42.29,30,99.61,30.24,73.19.3,115.55-92.06,31.82-123.43-106.6-39.94-61.98-104.21-130.64-104.88-1.1,0-2.19-.02-3.23,0h0Z"/>
</svg>